#!OML:ASF F:\VICON\USERDATA\INSTALL\rory3\rory3.ASF
:FULLY-SPECIFIED
:DEGREES
3490
root -2.20131 17.6944 1.35818 4.1949 -1.23246 1.69018
lowerback 2.30366 -0.0651954 -4.21117
upperback 0.966607 -0.169379 1.49293
thorax -0.281203 -0.0967699 3.90578
lowerneck -17.8793 0.242338 -10.6479
upperneck 26.7501 2.68334 3.40965
head 11.5216 0.562597 3.46617
rclavicle 7.25564e-015 -1.59028e-015
rhumerus -22.5679 -43.6289 4.43956
rradius 55.0259
rwrist 18.9215
rhand -29.3022 -4.44847
rfingers 7.12502
rthumb -2.64356 -34.4118
lclavicle 7.25564e-015 -1.59028e-015
lhumerus -19.4335 36.0929 -4.17994
lradius 47.8279
lwrist 4.48279
lhand -20.4132 22.4763
lfingers 7.12502
lthumb 5.94095 52.373
rfemur -14.4939 3.89658 9.02357
rtibia 31.1273
rfoot -19.5371 -6.43338
rtoes 8.43989
lfemur -11.1801 -0.00168914 -20.2817
ltibia 27.6665
lfoot -16.4725 5.85384
ltoes -18.3354
3491
root -2.20314 17.6949 1.36091 4.27303 -1.21258 1.67891
lowerback 2.44274 -0.0702091 -4.16082
upperback 0.968352 -0.180516 1.49208
thorax -0.356468 -0.100462 3.87726
lowerneck -17.8038 0.235223 -10.8072
upperneck 26.6337 2.68018 3.51242
head 11.458 0.563224 3.52556
rclavicle 1.04362e-015 -3.97569e-016
rhumerus -24.5623 -43.1659 5.08522
rradius 55.0869
rwrist 18.4831
rhand -29.466 -4.61758
rfingers 7.12502
rthumb -2.80174 -34.5789
lclavicle 1.04362e-015 -3.97569e-016
lhumerus -21.5271 35.5317 -4.37056
lradius 48.1755
lwrist 5.24367
lhand -20.7154 22.7724
lfingers 7.12502
lthumb 5.64918 52.6771
rfemur -14.5534 3.79764 9.03809
rtibia 31.1126
rfoot -19.5138 -6.32881
rtoes 8.20747
lfemur -11.2522 -0.0493207 -20.2639
ltibia 27.6509
lfoot -16.4358 5.9073
ltoes -18.5789
3492
root -2.2061 17.6956 1.36338 4.36446 -1.18781 1.68689
lowerback 2.53143 -0.0661029 -4.15879
upperback 1.02849 -0.177895 1.48707
thorax -0.344575 -0.100575 3.87107
lowerneck -17.9048 0.204578 -10.8408
upperneck 26.5469 2.65875 3.51037
head 11.4466 0.553262 3.52644
rclavicle -4.67144e-015 -1.43125e-014
rhumerus -26.5351 -42.986 5.6632
rradius 55.056
rwrist 18.3167
rhand -29.6314 -4.85403
rfingers 7.12502
rthumb -2.96145 -34.8132
lclavicle -4.67144e-015 -1.43125e-014
lhumerus -23.4614 35.2642 -4.40439
lradius 48.4315
lwrist 5.69492
lhand -20.8882 22.9926
lfingers 7.12502
lthumb 5.48228 52.9016
rfemur -14.6146 3.71604 9.02954
rtibia 31.0761
rfoot -19.4819 -6.27542
rtoes 8.28873
lfemur -11.3495 -0.0615056 -20.2667
ltibia 27.6613
lfoot -16.4248 5.92826
ltoes -18.5813
3493
root -2.21075 17.6977 1.36545 4.46182 -1.19888 1.64999
lowerback 2.58341 -0.0333627 -4.1716
upperback 1.09806 -0.135777 1.50227
thorax -0.30614 -0.0818158 3.89296
lowerneck -17.9855 0.204703 -10.8145
upperneck 26.4522 2.65614 3.52082
head 11.4262 0.559951 3.52403
rclavicle 5.76476e-015 1.19271e-015
rhumerus -28.4726 -42.8339 6.167
rradius 54.9927
rwrist 18.1705
rhand -29.7221 -5.09571
rfingers 7.12502
rthumb -3.04909 -35.0537
lclavicle 5.76476e-015 1.19271e-015
lhumerus -25.2274 35.0551 -4.27932
lradius 48.662
lwrist 5.99382
lhand -20.9636 23.1446
lfingers 7.12502
lthumb 5.40948 53.0556
rfemur -14.6968 3.75775 9.07927
rtibia 31.0408
rfoot -19.4288 -6.35426
rtoes 8.58434
lfemur -11.4594 -0.02887 -20.2061
ltibia 27.6887
lfoot -16.4495 5.87853
ltoes -18.3198
3494
root -2.21644 17.6988 1.36654 4.55825 -1.25547 1.57575
lowerback 2.63557 -0.00315825 -4.1767
upperback 1.1667 -0.0968187 1.53325
thorax -0.26846 -0.0646369 3.92692
lowerneck -17.9863 0.241827 -10.9096
upperneck 26.2678 2.68872 3.67846
head 11.3472 0.593227 3.59715
rclavicle 8.54774e-015 3.57812e-015
rhumerus -30.2659 -42.6199 6.5083
rradius 54.9352
rwrist 17.8899
rhand -29.6689 -4.83529
rfingers 7.12502
rthumb -2.99766 -34.794
lclavicle 8.54774e-015 3.57812e-015
lhumerus -26.9429 34.983 -4.12759
lradius 48.7544
lwrist 6.00224
lhand -20.8413 23.1027
lfingers 7.12502
lthumb 5.52761 53.0106
rfemur -14.8045 3.79965 9.17554
rtibia 31.0004
rfoot -19.3239 -6.38559
rtoes 8.6158
lfemur -11.5893 0.0596419 -20.1027
ltibia 27.7364
lfoot -16.4954 5.84177
ltoes -18.2467
3495
root -2.22048 17.6975 1.36635 4.67039 -1.2743 1.51096
lowerback 2.64897 -0.00465407 -4.12405
upperback 1.21173 -0.0975913 1.53879
thorax -0.229717 -0.0666666 3.90286
lowerneck -17.866 0.278534 -11.0329
upperneck 26.0569 2.70539 3.86312
head 11.2349 0.621025 3.67932
rclavicle -9.88954e-015 -1.39149e-014
rhumerus -31.9262 -42.3938 6.73714
rradius 54.7871
rwrist 17.698
rhand -29.6075 -4.53694
rfingers 7.12502
rthumb -2.93844 -34.4964
lclavicle -9.88954e-015 -1.39149e-014
lhumerus -28.5742 34.9881 -3.976
lradius 48.6728
lwrist 5.94792
lhand -20.7334 22.9652
lfingers 7.12502
lthumb 5.63175 52.8703
rfemur -14.929 3.84218 9.25535
rtibia 30.965
rfoot -19.2978 -6.45006
rtoes 8.63977
lfemur -11.7416 0.10981 -20.0189
ltibia 27.7935
lfoot -16.5122 5.86039
ltoes -18.3696
3496
root -2.22271 17.6995 1.36606 4.80955 -1.26592 1.4398
lowerback 2.56499 0.0194564 -4.02622
upperback 1.28682 -0.0592284 1.5277
thorax -0.109505 -0.0513181 3.8347
lowerneck -17.7319 0.260814 -10.9573
upperneck 25.8186 2.64158 3.83885
head 11.1249 0.606047 3.63857
rclavicle 2.5345e-015 0
rhumerus -33.6537 -42.0831 7.01283
rradius 54.5959
rwrist 17.4122
rhand -29.5718 -4.43287
rfingers 7.12502
rthumb -2.90396 -34.3928
lclavicle 2.5345e-015 0
lhumerus -30.0058 35.104 -3.62777
lradius 48.5605
lwrist 5.91862
lhand -20.9063 23.1474
lfingers 7.12502
lthumb 5.46481 53.0569
rfemur -15.0713 3.87872 9.32822
rtibia 30.9372
rfoot -19.3478 -6.4911
rtoes 8.75377
lfemur -11.9337 0.129254 -19.9272
ltibia 27.8544
lfoot -16.5114 5.82963
ltoes -18.1604
3497
root -2.22407 17.7004 1.36658 4.93089 -1.27861 1.40897
lowerback 2.50348 0.0586636 -3.96971
upperback 1.36971 -0.0026617 1.50333
thorax 0.00461478 -0.0268483 3.77591
lowerneck -17.6852 0.242773 -10.7853
upperneck 25.5886 2.58921 3.71121
head 11.0383 0.5919 3.54742
rclavicle -8.99501e-015 -5.96354e-015
rhumerus -35.3327 -41.8107 7.17451
rradius 54.4174
rwrist 17.1489
rhand -29.7519 -4.57511
rfingers 7.12502
rthumb -3.07788 -34.5326
lclavicle -8.99501e-015 -5.96354e-015
lhumerus -31.3636 35.1769 -3.1592
lradius 48.4911
lwrist 5.85835
lhand -21.2616 23.4893
lfingers 7.12502
lthumb 5.1218 53.4074
rfemur -15.2128 3.84895 9.34883
rtibia 30.9355
rfoot -19.3684 -6.40358
rtoes 9.19123
lfemur -12.0822 0.140375 -19.889
ltibia 27.8869
lfoot -16.5106 5.8075
ltoes -17.9918
3498
root -2.22522 17.7012 1.36764 5.01443 -1.28277 1.42205
lowerback 2.57104 0.0824298 -3.95924
upperback 1.38676 0.0268137 1.47918
thorax -0.0185238 -0.0117447 3.74431
lowerneck -17.6926 0.251456 -10.777
upperneck 25.4839 2.59601 3.71837
head 10.9995 0.600883 3.54642
rclavicle -5.26779e-015 -2.10712e-014
rhumerus -36.8027 -41.5381 7.17346
rradius 54.1914
rwrist 16.9281
rhand -30.0062 -4.90158
rfingers 7.12502
rthumb -3.32341 -34.8554
lclavicle -5.26779e-015 -2.10712e-014
lhumerus -32.7839 34.9066 -2.66244
lradius 48.4998
lwrist 6.07977
lhand -21.4411 23.8243
lfingers 7.12502
lthumb 4.94847 53.7466
rfemur -15.3045 3.71605 9.33903
rtibia 30.938
rfoot -19.2227 -6.43115
rtoes 8.60205
lfemur -12.1722 0.179391 -19.9049
ltibia 27.8959
lfoot -16.5236 5.78003
ltoes -18.3076
3499
root -2.22759 17.7025 1.36936 5.0843 -1.22904 1.50358
lowerback 2.66928 0.0722466 -4.04701
upperback 1.38101 0.00744472 1.47246
thorax -0.0774472 -0.0203822 3.78758
lowerneck -17.7812 0.235644 -10.9493
upperneck 25.4933 2.59565 3.86788
head 11.015 0.602684 3.63201
rclavicle 3.8266e-015 9.93923e-015
rhumerus -38.103 -41.2659 7.11194
rradius 53.9214
rwrist 16.7898
rhand -29.6681 -4.65168
rfingers 7.12502
rthumb -2.9969 -34.6104
lclavicle 3.8266e-015 9.93923e-015
lhumerus -34.2333 34.6791 -2.13867
lradius 48.435
lwrist 6.36485
lhand -21.5608 23.8348
lfingers 7.12502
lthumb 4.8329 53.7596
rfemur -15.3606 3.56192 9.25918
rtibia 30.9401
rfoot -19.152 -6.38709
rtoes 8.28553
lfemur -12.2528 0.175635 -19.9922
ltibia 27.8946
lfoot -16.4832 5.7896
ltoes -18.5682
3500
root -2.23082 17.7021 1.37193 5.14904 -1.16752 1.55438
lowerback 2.65511 0.0682251 -4.11157
upperback 1.44889 0.00183685 1.45414
thorax 0.000983324 -0.0265683 3.80522
lowerneck -17.8196 0.218234 -10.9379
upperneck 25.4047 2.57295 3.86045
head 10.9916 0.596002 3.62214
rclavicle -5.66536e-015 -6.75868e-015
rhumerus -39.4979 -41.0773 7.00725
rradius 53.7355
rwrist 16.7104
rhand -29.1909 -4.32773
rfingers 7.12502
rthumb -2.53603 -34.2924
lclavicle -5.66536e-015 -6.75868e-015
lhumerus -35.5266 34.7249 -1.58355
lradius 48.2184
lwrist 6.27115
lhand -21.5088 23.6272
lfingers 7.12502
lthumb 4.88311 53.5509
rfemur -15.4022 3.55973 9.1999
rtibia 30.9277
rfoot -19.2443 -6.3249
rtoes 8.44311
lfemur -12.3306 0.177989 -20.0298
ltibia 27.9039
lfoot -16.4792 5.7148
ltoes -18.3104
